<svg xmlns="http://www.w3.org/2000/svg" width="1024" height="1024" viewBox="0 0 1024 1024">
  <path
    fill="#F3C948"
    d="M 222 542 C 265 564 366 565 407 541 C 395 577 250 585 222 542 Z"
  />
  <path
    fill="#E47A0B"
    d="M 211 525 C 250 541 282 546 315 545 C 351 545 386 537 420 518 C 397 548 360 560 316 561 C 272 561 235 549 211 525 Z"
  />
  <path
    fill="#FFA51F"
    d="M 195 493 C 225 469 267 459 312 460 C 358 461 404 473 433 493 C 446 502 446 515 433 525 C 402 540 361 548 315 548 C 269 548 228 539 197 523 C 184 515 183 503 195 493 Z"
  />
</svg>
